<?xml version="1.0" encoding="utf-8"?>
<!-- Generator: Adobe Illustrator 22.0.1, SVG Export Plug-In . SVG Version: 6.00 Build 0)  -->
<svg version="1.1" id="Calque_1" xmlns="http://www.w3.org/2000/svg" xmlns:xlink="http://www.w3.org/1999/xlink" x="0px" y="0px"
	 viewBox="0 0 1000 1000" style="enable-background:new 0 0 1000 1000; fill:#FFFFFF;" xml:space="preserve">
<g>
	<path d="M866.8,506c-8-1.2-16.1-2.1-24.1-2.9c-8.2-0.9-16.4-1.7-24.6-2.5c-4.1-0.4-7.4-1.8-10.2-4.9c-12.6-14-28.8-18.4-47.1-17.8
		c-14.7,0.4-29.3,1.1-43.8,4.1c-11.5,2.4-19.2,8.8-23.3,19.5c-2.8,7.1-4.9,14.5-7.3,21.7c-0.6,1.8-1,4.1-2.3,5.2
		c-16,13.6-21.6,32.4-25.9,51.7c-1.5,6.6-2.4,13.7-1.7,20.4c1.6,16.3,12.4,25.3,27.1,30.1c3.7,1.2,7.5,2.2,11.3,2.7
		c4.8,0.7,7.8-1.1,8.4-5.9c0.7-5.6,0.6-11.4,0-17c-1.2-11.3-3.8-22.6-1.8-34c1.2-6.4,3.1-12.6,4.7-19c0.5,0.1,1,0.2,1.4,0.3
		c-3.8,16.6-0.2,32.8,2.3,49.1c1.1,7.6,2.4,15.1,3.2,22.7c1.1,10.7-3.7,15.3-14.2,15c-4.6-0.1-8.9-0.3-12.9-0.7
		c-3.7-2.4-7.6-4.5-11.8-6.5c-14.5-6.6-29.4-12.5-43.8-19.4c-8.3-4-15.9-9.4-23.5-13.9c9.6-7.7,19-14.1,27.2-21.9
		c14.2-13.6,22-31,27-49.7c16.2-59.6,8.5-117-18.6-171.7c-14.4-29.2-35.4-52.3-68-61.8c-20.6-6-41.8-6.2-63-5.3
		c-6.8,0.3-13.4,1-19.8,2c-7.8-8.4-14.7-17.3-20.8-26.7c-0.8-1.3-1.6-2.5-3.1-4.8c-1.9,13.2-1.3,25.2,2.8,36.6
		c-0.4,0.1-0.8,0.2-1.2,0.4c-3.5-6.5-5.6-13.5-7.3-20.6c-3-12.5-5.8-25-10.1-37.2c-2.1-6-7.4-11.2-12.1-16.4
		c2.5,18.2-4.3,36.7,2.6,54.4c1.1,2.9,2.1,5.8,3.2,8.7c-0.5,0.2-1,0.3-1.5,0.5c-2.3-5.1-5.3-10.1-6.6-15.4
		c-3.4-13.3-5.9-26.8-9.2-40.2c-3.7-15.1-10.4-28.9-25-39.1c-1.5-1-3-2-4.6-3c-0.5-0.3-1.2-0.5-2.5-1c8.4,16.1,8.6,32.6,7.1,49.4
		c-1,11.6,1.5,22.7,6.4,33.5c-0.6,0.2-1.2,0.3-1.7,0.5c-2.3-5.3-5.2-10.4-6.7-15.8c-2.7-9.5-4.7-19.2-6.6-28.8
		c-2.6-13.3-5.8-26.3-14.7-37.7c-5.2-6.6-11.5-12.5-21-17.2c10.6,17.8,11,35.8,9.6,54.1c-0.5,5.8,0.3,11.6,1.3,17.3
		c1,5.5,3.2,10.8,5.2,17.4c-7.1-9.7-9.8-19.5-12.2-29.3c-3-12.4-5.1-24.9-8.6-37.1c-3.2-11.3-10.6-20.9-20.9-28.7
		c-11.3-8.6-24.8-12.2-40.2-11.8c-17.3,0.5-33,5.8-48.5,11.9c0.8,3.4,1.6,6.5,2.3,9.6c-6.7-7.6-15.9-11.5-26.1-13.9
		c-12.9-3.1-24.5-7.8-34.1-15.8c5.1,14.6,12.2,28.3,24.8,39.4c-5.2,5.9-10.1,11.6-16,18.4c1.1-4.1,2-7.2,2.9-10.6
		c-15.9-5.7-34.2-8-46.6-19.8c6.5,18.1,15.8,34.5,34,46.3c1.2,0.8,2,2.6,1.9,3.9c-0.6,7.9-1.5,15.8-2.5,23.6c-0.2,1.4-1.2,2.7-2,4
		c-2.7,4.1-5.8,8-8.2,12.2c-3.1,5.5-3.5,10.8,0.5,16.5c7,9.9,5.5,21,2.4,31.8c-5.5,19.5-8.8,39.2-11.2,59.1
		c-0.5,4.1-3.5,8.1-5.2,12.2c-3,7.1-3.1,7.3,4.3,10.7c7.2,3.3,12.3,7.6,13.6,14.7c1.2,6.8,7.9,9.3,14.6,10.6
		c6.5,1.3,13.4,0.9,20.2,1.3c0.9,0,2.1,0,2.6-0.5c5.5-5.1,12.4-2.6,18.6-2.5c3.5,0,5.9-0.5,8.4-2.8c9.9-9.1,14.5-19,9.4-31
		c-0.4-1,0.2-2.6,0.9-3.7c11.8-17.4,27.1-32.6,43.1-47.3c2.3-2.2,5.9-3.4,9-4.9c9-4.2,17-9.5,22.9-16.6c9.7-11.6,9.2-23.7,2.2-35.7
		c-0.6-1.1-1.3-2.1-2-3.1c-0.1-0.1,0-0.3,0-0.4c11.2,7.3,15.7,23.5,10.2,35.5c-3.4,7.4-8.8,13.5-15.5,18.9
		c-7.2,5.7-7.1,5.6-2.9,13.1c10.9,19.5,17.3,40,17.2,61.9c-0.1,8.6-1.1,17.1-3.6,25.5c-13.4,26.8-22.8,55.5-28.5,86
		c-7.2,38.9-5.8,77.7,7.1,115.5c1.2,3.4,3.2,6.5,4.1,8.5c1.2-11.1,1.4-23.1,4-34.5c4.7-21,18.3-36.9,34.5-49.8
		c26.8-21.3,54.8-41.1,82-61.8c19.8-15,40.2-29.6,58.6-46.2c22.4-20.2,36.9-45.7,42.6-75.7c0.8-4.4,0.5-9.1,0.8-13.6
		c0.3-4.9,2.7-7.2,7.8-6.3c22.9,4,40.4,15.5,49.5,37.2c20.5,49,14.8,95.5-16,138.6c-20.6,28.9-53.7,29.7-80.1,2.9
		c-15.5-15.7-18.7-21.7-28.7-52.6c-31.3,23.5-63.2,46.6-94,71c-10.2,8.1-18.7,18.8-26.5,29.5c-12.2,16.8-15.7,36.1-12.7,56.8
		c3.1,21.2,15.9,52.3,27.6,64.2c0.6-3.3,1-6.3,1.6-9.3c4.1-19.8,16.9-32.7,33.6-42.6c18-10.6,38-15.1,58.1-19.6
		c31-6.9,45.5-28.7,40.6-60.2c-1-6.1-2.1-12.2-3.2-18.6c8.3,2.7,15.9,5.9,23.8,7.8c15.2,3.6,29.7,0.8,43-7.4c1.6-1,3.2-2,4.8-2.9
		c5.5-3.1,6.9-2.1,8.1,4.1c2.1,11,3.8,22.1,7.3,32.7c8.1,24.8,25.2,41.4,49.4,50.8c2.8,1.1,5.6,2.1,8.4,3.2c-1.1,2-2.2,4-3.7,5.7
		c-12.6,15.1-26.1,29.4-38.3,44.7c-8.9,11.1-19.9,11.9,10.2,35.1c5.5,8.1,9.8,11.2,12.2,14c22.7,14.8,33,26.8,52.6,40.6
		c14.8,10.4,17.8,9.2,38.1,21.1c6.5,3.8,20.1,9.5,25.4,15c10.1,6,14.1-2.8,19.8-10.6c5.8-7.9,8.1-17.1,9.7-26.4
		c3.6-21.6,6.7-43.2,9.6-64.9c0.8-5.9,0.2-12-0.5-17.9c-1.1-8.5-6.2-15.1-11.5-21.5c-1.7-2.1-3.6-4-5.5-6
		c-5.8-6.2-7.2-13.6-6.2-21.7c2.1-16.6,5.2-32.9,11.6-48.4c2-4.8,4.7-9.4,7.5-13.7c3-4.7,7.7-6.3,13.2-5.9c15.6,1,31.2,1.5,46.7,2.9
		c13.2,1.2,22.5-4.5,27.6-15.8c4.2-9.4,6.3-19.9,9.2-29.9c1-3.3,1.6-6.6,2.5-9.9c0.6-2.3,1.4-4.6,1.7-7
		C875.7,510.7,873.2,507,866.8,506z M210.7,396.2c-1.3-3.5-1.6-7.8-4.2-10.7c-2.7-2.9-7.6-4.4-11.2-6.4c6.1-3.4,14-2.7,18.4,2.3
		C218.1,386.3,216.6,392.1,210.7,396.2z M260.2,268.2c-5,15.4-18.4,27-35.2,25.7c-3.2-0.2-2.2-5.1,1-4.8
		c13.9,1.1,25.2-8.6,29.4-21.4C256.2,264.7,261.1,265.2,260.2,268.2z M788.1,509.1c-6.8,5.5-16,6.3-22.7,0c-1.3-1.2,0.6-3.1,1.9-1.9
		c5.5,5.2,13.3,4.5,18.9,0C787.5,506.1,789.4,508,788.1,509.1z"/>
	<path d="M554.4,441.1c1.4-1.4,2.8-2.8,4.2-4.2c1.1,0.7,2.3,1.3,3.5,1.8c-0.8,1.9-1.6,3.7-2.4,5.6c-0.5,1.2-0.3,2.5,0.8,3.2
		c1,0.6,2.7,0.3,3.2-0.8c0.9-2.2,1.8-4.3,2.8-6.5c1.6,0.4,3.2,0.6,4.8,0.7c0,0,0,0,0,0.1c0,2.5,0,4.9,0,7.4c0,3,4.7,3,4.7,0
		c0-2.5,0-4.9,0-7.4c0-0.1,0-0.1,0-0.2c1.2-0.1,2.4-0.4,3.6-0.6c0.9,2.2,1.9,4.3,2.8,6.5c0.5,1.2,2.2,1.4,3.2,0.8
		c1.2-0.7,1.3-2.1,0.8-3.2c-0.8-1.8-1.6-3.7-2.4-5.5c1.2-0.5,2.4-1.1,3.6-1.7c1.4,1.4,2.7,2.7,4.1,4.1c2.1,2.1,5.5-1.2,3.3-3.3
		c-1.1-1.1-2.2-2.2-3.3-3.3c0.6-0.4,1.2-0.9,1.8-1.3c2.4-1.9-1-5.2-3.3-3.3c-10,8-23.6,9.1-33.3,0c-2.2-2.1-5.6,1.3-3.3,3.3
		c0.3,0.3,0.7,0.6,1.1,0.9c-1.2,1.2-2.5,2.5-3.7,3.7C548.9,439.9,552.3,443.3,554.4,441.1z"/>
	<path d="M543.8,500.6c-2.4-1.4-5.2-2.2-8.4-1.8c-2.2,0.2-4.3,0.7-6.3,1.2c-2.3,0.6-4.7,1-7.1,0.9c-2.8-0.1-5.6-0.3-8.5-0.5
		c0.1,0.2,0.3,0.4,0.5,0.6c3.8,3.9,9.3,6.3,15.8,7.7c8,1.7,16.2,1.8,24.5,0.7c6.2-0.9,11.8-2.7,16.3-5.8c1.4-1,2.6-2.1,3.8-3.1
		c-0.1,0-0.2-0.1-0.2-0.1c-0.8,0.1-1.6,0.2-2.4,0.3c-4,0.5-7.9,0.6-11.9-0.3c-2-0.4-4-1-6.1-1.4c-3-0.6-5.9-0.3-8.6,0.9
		C544.8,500.1,544.3,500.3,543.8,500.6z"/>
</g>
</svg>
